<svg width="24" height="24" viewBox="0 0 24 24" fill="none" xmlns="http://www.w3.org/2000/svg">
<mask id="mask0_88_1160" style="mask-type:alpha" maskUnits="userSpaceOnUse" x="0" y="0" width="24" height="24">
<rect width="24" height="24" fill="currentColor"/>
</mask>
<g mask="url(#mask0_88_1160)">
<path d="M7.67499 13.1375H18.587C18.9062 13.1375 19.1756 13.0278 19.3952 12.8083C19.6147 12.5886 19.7245 12.3192 19.7245 12C19.7245 11.6808 19.6147 11.4114 19.3952 11.1918C19.1756 10.9723 18.9062 10.8625 18.587 10.8625H7.67499L12.342 6.19575C12.5698 5.96775 12.6806 5.7005 12.6742 5.394C12.6679 5.0875 12.5508 4.82034 12.323 4.5925C12.095 4.38117 11.8277 4.27234 11.5212 4.266C11.2147 4.25967 10.9475 4.37042 10.7195 4.59825L4.11949 11.1983C4.00765 11.3103 3.9259 11.4346 3.87424 11.5713C3.82257 11.7078 3.79674 11.8507 3.79674 12C3.79674 12.1493 3.82257 12.2923 3.87424 12.4288C3.9259 12.5654 4.00765 12.6898 4.11949 12.8018L10.7255 19.4075C10.9408 19.6228 11.2039 19.7305 11.5147 19.7305C11.8256 19.7305 12.095 19.6228 12.323 19.4075C12.5508 19.1797 12.6647 18.9093 12.6647 18.5965C12.6647 18.2837 12.5508 18.0133 12.323 17.7853L7.67499 13.1375Z" fill="currentColor"/>
</g>
</svg>
