<svg width="24" height="24" viewBox="0 0 24 24" fill="none" xmlns="http://www.w3.org/2000/svg">
<mask id="mask0_72_1343" style="mask-type:alpha" maskUnits="userSpaceOnUse" x="0" y="0" width="24" height="24">
<rect width="24" height="24" fill="currentColor"/>
</mask>
<g mask="url(#mask0_72_1343)">
<path d="M6.75 22C6 22 5.35417 21.7458 4.8125 21.2375C4.27083 20.7292 4 20.1 4 19.35V5.40001C4 4.76667 4.19583 4.20001 4.5875 3.70001C4.97917 3.20001 5.49167 2.88334 6.125 2.75001L13.625 1.27501C14.2417 1.14167 14.7917 1.27501 15.275 1.67501C15.7583 2.07501 16 2.59167 16 3.22501V15.15C16 15.6333 15.85 16.0625 15.55 16.4375C15.25 16.8125 14.8667 17.0417 14.4 17.125L6.525 18.7C6.375 18.7333 6.25 18.8125 6.15 18.9375C6.05 19.0625 6 19.2 6 19.35C6 19.5333 6.075 19.6875 6.225 19.8125C6.375 19.9375 6.55 20 6.75 20H18V5.00001C18 4.71667 18.0958 4.47917 18.2875 4.28751C18.4792 4.09584 18.7167 4.00001 19 4.00001C19.2833 4.00001 19.5208 4.09584 19.7125 4.28751C19.9042 4.47917 20 4.71667 20 5.00001V20C20 20.55 19.8042 21.0208 19.4125 21.4125C19.0208 21.8042 18.55 22 18 22H6.75ZM8.2 16.35C8.43333 16.3 8.625 16.1833 8.775 16C8.925 15.8167 9 15.6083 9 15.375V5.45001C9 5.13334 8.87917 4.87501 8.6375 4.67501C8.39583 4.47501 8.11667 4.40834 7.8 4.47501C7.56667 4.52501 7.375 4.64167 7.225 4.82501C7.075 5.00834 7 5.21667 7 5.45001V15.375C7 15.6917 7.12083 15.95 7.3625 16.15C7.60417 16.35 7.88333 16.4167 8.2 16.35Z" fill="currentColor"/>
</g>
</svg>
