<svg width="24" height="24" viewBox="0 0 24 24" fill="none" xmlns="http://www.w3.org/2000/svg">
<mask id="mask0_118_4095" style="mask-type:alpha" maskUnits="userSpaceOnUse" x="0" y="0" width="24" height="24">
<rect width="24" height="24" fill="currentColor"/>
</mask>
<g mask="url(#mask0_118_4095)">
<path d="M18.956 22.2033C16.8483 22.2033 14.766 21.7441 12.709 20.8258C10.6518 19.9074 8.778 18.604 7.0875 16.9155C5.397 15.2268 4.09259 13.3533 3.17425 11.295C2.25592 9.23667 1.79675 7.153 1.79675 5.044C1.79675 4.68767 1.915 4.39067 2.1515 4.153C2.38784 3.9155 2.68334 3.79675 3.038 3.79675H7.082C7.407 3.79675 7.68509 3.89284 7.91625 4.085C8.14742 4.27717 8.29167 4.5235 8.349 4.824L8.993 8.19825C9.04217 8.52475 9.03484 8.80159 8.971 9.02875C8.907 9.25592 8.78442 9.45409 8.60325 9.62325L6.1425 12.0255C6.45984 12.5983 6.83567 13.1563 7.27 13.6995C7.7045 14.2427 8.18875 14.7729 8.72275 15.2903C9.21959 15.7869 9.73142 16.2422 10.2583 16.656C10.7849 17.0698 11.3371 17.4441 11.9148 17.7788L14.3065 15.405C14.5003 15.215 14.738 15.0786 15.0195 14.9958C15.301 14.9128 15.5883 14.8958 15.8815 14.945L19.17 15.6273C19.4872 15.7178 19.7377 15.8714 19.9215 16.0883C20.1053 16.3051 20.1973 16.5638 20.1973 16.8643V20.956C20.1973 21.3123 20.0783 21.6093 19.8405 21.847C19.6027 22.0845 19.3078 22.2033 18.956 22.2033ZM5.055 9.90425L6.699 8.30825L6.28575 6.07175H4.10275C4.17809 6.72725 4.28767 7.37425 4.4315 8.01275C4.57534 8.65125 4.78317 9.28175 5.055 9.90425ZM14.0288 18.8843C14.6549 19.1556 15.2945 19.3726 15.9475 19.5353C16.6007 19.6979 17.2589 19.8083 17.9223 19.8663V17.6963L15.6918 17.2333L14.0288 18.8843ZM13.0358 4.012C12.7246 4.012 12.4623 3.90517 12.2488 3.6915C12.0351 3.478 11.9283 3.21559 11.9283 2.90425C11.9283 2.59309 12.0351 2.33067 12.2488 2.117C12.4623 1.9035 12.7246 1.79675 13.0358 1.79675H21.0958C21.4069 1.79675 21.6693 1.9035 21.883 2.117C22.0965 2.33067 22.2033 2.59309 22.2033 2.90425C22.2033 3.21559 22.0965 3.478 21.883 3.6915C21.6693 3.90517 21.4069 4.012 21.0958 4.012H13.0358ZM13.0358 8.07775C12.7246 8.07775 12.4623 7.97092 12.2488 7.75725C12.0351 7.54375 11.9283 7.28134 11.9283 6.97C11.9283 6.65884 12.0351 6.3965 12.2488 6.183C12.4623 5.96934 12.7246 5.8625 13.0358 5.8625H21.0958C21.4069 5.8625 21.6693 5.96934 21.883 6.183C22.0965 6.3965 22.2033 6.65884 22.2033 6.97C22.2033 7.28134 22.0965 7.54375 21.883 7.75725C21.6693 7.97092 21.4069 8.07775 21.0958 8.07775H13.0358ZM13.0358 12.1435C12.7246 12.1435 12.4623 12.0367 12.2488 11.823C12.0351 11.6095 11.9283 11.3471 11.9283 11.0358C11.9283 10.7246 12.0351 10.4623 12.2488 10.2488C12.4623 10.0351 12.7246 9.92825 13.0358 9.92825H21.0958C21.4069 9.92825 21.6693 10.0351 21.883 10.2488C22.0965 10.4623 22.2033 10.7246 22.2033 11.0358C22.2033 11.3471 22.0965 11.6095 21.883 11.823C21.6693 12.0367 21.4069 12.1435 21.0958 12.1435H13.0358Z" fill="currentColor"/>
</g>
</svg>
