<svg width="24" height="24" viewBox="0 0 24 24" fill="none" xmlns="http://www.w3.org/2000/svg">
<mask id="mask0_72_1341" style="mask-type:alpha" maskUnits="userSpaceOnUse" x="0" y="0" width="24" height="24">
<rect width="24" height="24" fill="currentColor"/>
</mask>
<g mask="url(#mask0_72_1341)">
<path d="M12 6C11.45 6 10.9791 5.80417 10.5875 5.4125C10.1958 5.02083 9.99998 4.55 9.99998 4C9.99998 3.45 10.1958 2.97917 10.5875 2.5875C10.9791 2.19583 11.45 2 12 2C12.55 2 13.0208 2.19583 13.4125 2.5875C13.8041 2.97917 14 3.45 14 4C14 4.55 13.8041 5.02083 13.4125 5.4125C13.0208 5.80417 12.55 6 12 6ZM8.99998 21V9C8.18331 8.93333 7.35831 8.84167 6.52498 8.725C5.69165 8.60833 4.87498 8.45833 4.07498 8.275C3.79165 8.20833 3.56248 8.05 3.38748 7.8C3.21248 7.55 3.16665 7.28333 3.24998 7C3.33331 6.71667 3.50831 6.50833 3.77498 6.375C4.04165 6.24167 4.32498 6.20833 4.62498 6.275C5.79165 6.525 7.00415 6.70833 8.26248 6.825C9.52081 6.94167 10.7666 7 12 7C13.2333 7 14.4791 6.94167 15.7375 6.825C16.9958 6.70833 18.2083 6.525 19.375 6.275C19.675 6.20833 19.9583 6.24167 20.225 6.375C20.4916 6.50833 20.6666 6.71667 20.75 7C20.8333 7.28333 20.7875 7.55 20.6125 7.8C20.4375 8.05 20.2083 8.20833 19.925 8.275C19.125 8.45833 18.3083 8.60833 17.475 8.725C16.6416 8.84167 15.8166 8.93333 15 9V21C15 21.2833 14.9041 21.5208 14.7125 21.7125C14.5208 21.9042 14.2833 22 14 22C13.7166 22 13.4791 21.9042 13.2875 21.7125C13.0958 21.5208 13 21.2833 13 21V16H11V21C11 21.2833 10.9041 21.5208 10.7125 21.7125C10.5208 21.9042 10.2833 22 9.99998 22C9.71665 22 9.47915 21.9042 9.28748 21.7125C9.09581 21.5208 8.99998 21.2833 8.99998 21Z" fill="currentColor"/>
</g>
</svg>
