<svg width="24" height="24" viewBox="0 0 24 24" fill="none" xmlns="http://www.w3.org/2000/svg">
<mask id="mask0_118_4094" style="mask-type:alpha" maskUnits="userSpaceOnUse" x="0" y="0" width="24" height="24">
<rect width="24" height="24" fill="currentColor"/>
</mask>
<g mask="url(#mask0_118_4094)">
<path d="M17.0235 22.2033C16.1387 22.2033 15.3867 21.8942 14.7675 21.276C14.1482 20.6578 13.8385 19.9072 13.8385 19.024C13.8385 18.928 13.8615 18.7126 13.9075 18.3778L7.08575 14.4033C6.80725 14.6493 6.48917 14.8421 6.1315 14.9818C5.77384 15.1214 5.39067 15.1913 4.982 15.1913C4.09717 15.1913 3.34509 14.8812 2.72575 14.261C2.10642 13.6407 1.79675 12.8875 1.79675 12.0015C1.79675 11.1153 2.10642 10.3617 2.72575 9.7405C3.34509 9.11934 4.09717 8.80875 4.982 8.80875C5.39 8.80875 5.775 8.87959 6.137 9.02125C6.499 9.16292 6.82125 9.35875 7.10375 9.60875L13.9018 5.64625C13.8723 5.53759 13.8543 5.43009 13.848 5.32375C13.8417 5.21742 13.8385 5.1035 13.8385 4.982C13.8385 4.09717 14.1483 3.34509 14.7678 2.72575C15.3873 2.10642 16.1394 1.79675 17.0243 1.79675C17.9093 1.79675 18.6613 2.1065 19.2805 2.726C19.8997 3.34534 20.2093 4.0975 20.2093 4.9825C20.2093 5.86734 19.8996 6.61934 19.2803 7.2385C18.6609 7.85784 17.9088 8.1675 17.024 8.1675C16.6065 8.1675 16.2152 8.09467 15.85 7.949C15.4848 7.80334 15.1609 7.6015 14.8783 7.3435L8.10425 11.282C8.13759 11.4028 8.15842 11.5194 8.16675 11.6318C8.17509 11.7439 8.17925 11.8677 8.17925 12.003C8.17925 12.1383 8.17409 12.2642 8.16375 12.3805C8.15342 12.4968 8.13159 12.6153 8.09825 12.7358L14.8663 16.6745C15.1489 16.4125 15.4741 16.2067 15.8418 16.057C16.2096 15.9073 16.6037 15.8325 17.024 15.8325C17.9088 15.8325 18.6609 16.1427 19.2803 16.763C19.8996 17.3833 20.2093 18.1365 20.2093 19.0225C20.2093 19.9087 19.8995 20.6603 19.28 21.2775C18.6607 21.8947 17.9085 22.2033 17.0235 22.2033ZM17.0203 19.988C17.2941 19.988 17.5248 19.895 17.7125 19.709C17.9002 19.523 17.994 19.2925 17.994 19.0175C17.994 18.7425 17.9005 18.5121 17.7135 18.3263C17.5263 18.1406 17.2945 18.0478 17.018 18.0478C16.7448 18.0478 16.5158 18.1416 16.331 18.3293C16.1462 18.5169 16.0538 18.7465 16.0538 19.018C16.0538 19.2893 16.1464 19.5188 16.3318 19.7065C16.5169 19.8942 16.7464 19.988 17.0203 19.988ZM4.9825 12.976C5.2575 12.976 5.48984 12.8826 5.6795 12.6958C5.86934 12.5089 5.96425 12.2774 5.96425 12.0013C5.96425 11.7251 5.86934 11.4932 5.6795 11.3055C5.48984 11.1178 5.2575 11.024 4.9825 11.024C4.7075 11.024 4.477 11.1174 4.291 11.3043C4.105 11.4911 4.012 11.7226 4.012 11.9988C4.012 12.2749 4.105 12.5068 4.291 12.6945C4.477 12.8822 4.7075 12.976 4.9825 12.976ZM17.024 5.95225C17.2953 5.95225 17.5238 5.85959 17.7095 5.67425C17.8952 5.48909 17.988 5.25959 17.988 4.98575C17.988 4.71192 17.8954 4.48117 17.7103 4.2935C17.5249 4.10584 17.2953 4.012 17.0215 4.012C16.7477 4.012 16.5169 4.1055 16.3293 4.2925C16.1416 4.47967 16.0478 4.7115 16.0478 4.988C16.0478 5.26117 16.1426 5.49017 16.3323 5.675C16.5219 5.85984 16.7525 5.95225 17.024 5.95225Z" fill="currentColor"/>
</g>
</svg>
