<svg width="224" height="205" viewBox="0 0 224 205" fill="none" xmlns="http://www.w3.org/2000/svg">
<path d="M110.208 116.988C110.148 116.295 108.965 115.686 108.308 115.04C107.83 115.745 106.91 116.462 106.933 117.143C107.017 119.426 107.674 121.696 107.638 123.954C107.615 125.364 107.089 127.635 106.181 128.005C103.851 128.937 103.217 126.511 102.835 124.946C102.142 122.066 101.772 119.091 101.473 116.128C100.971 111.061 100.696 105.959 100.146 100.893C100.051 100.02 98.9993 98.5388 98.4377 98.5627C97.3265 98.6105 96.1196 99.3274 95.1996 100.08C91.4237 103.175 91.0532 106.557 91.8419 111.384C92.6664 116.45 92.3318 121.72 92.3079 126.906C92.3079 127.443 91.1483 128.975 90.2407 128.507C89.5876 128.17 89.5835 127.36 89.5357 126.762C89.3684 124.946 89.4282 123.094 89.2012 121.29C89.1414 120.836 88.1257 120.035 87.9226 120.131C87.3252 120.441 86.5365 121.099 86.5126 121.636C86.4409 123.751 86.7158 125.878 86.6919 127.993C86.6799 128.686 86.7047 129.888 85.8554 130.036C85.3508 130.125 84.9854 129.946 84.6247 129.582C83.8547 128.806 83.6807 127.539 83.5732 126.476C83.0833 122.007 82.7726 117.502 82.2827 113.033C82.1871 112.197 81.6494 111.396 81.2312 110.619C81.1117 110.404 80.4784 110.213 80.4186 110.273C79.9646 110.834 79.5941 111.456 79.2118 112.077C78.4829 113.272 78.5675 116.313 77.049 115.686C76.208 115.338 75.651 114.312 75.7346 113.762C76.5113 109.078 78.2678 104.848 82.7606 102.554C84.1945 101.825 86.3931 102.398 87.6119 101.514C89.5835 100.092 90.9935 97.9294 92.7022 96.1251C96.1435 92.4807 99.1905 88.2746 103.217 85.4427C107.137 82.6825 112.884 83.8893 116.863 89.3261C119.492 92.9108 121.726 96.7943 124.499 100.259C125.383 101.359 127.378 101.61 128.92 102.112C129.075 102.159 129.445 101.132 129.864 100.929C131.035 100.379 132.337 99.5664 133.484 99.7098C134.309 99.8174 135.229 101.18 135.623 102.171C136.531 104.43 137.141 106.796 137.881 109.126C137.917 109.233 137.989 109.329 138.037 109.424C138.073 109.305 138.108 109.173 138.156 109.054C139.076 106.796 139.949 104.501 140.988 102.291C141.203 101.837 142.064 101.681 142.625 101.383C142.9 102.315 143.617 103.39 143.378 104.155C142.613 106.58 141.454 108.887 140.57 111.276C140.498 111.468 141.299 112.005 141.705 112.364C144.836 115.064 145.672 118.314 144.585 122.341C143.45 126.523 136.758 129.797 132.743 128.244C129.338 126.93 126.602 124.624 126.769 120.322C126.793 119.82 126.542 119.294 126.422 118.78C126.064 119.306 125.717 119.832 125.359 120.358C124.283 121.959 123.435 123.787 122.085 125.09C120.926 126.225 117.425 124.994 117.484 123.739C117.496 123.405 118.046 122.783 118.297 122.807C121.595 123.166 122.192 120.895 122.431 118.494C122.718 115.626 124.606 114.347 126.936 113.415C127.988 112.997 129.589 113.045 130.055 112.316C130.604 111.456 130.688 109.484 130.091 108.875C128.346 107.13 126.148 105.852 124.14 104.358C122.121 102.852 120.149 101.275 118.094 99.8054C117.413 99.3155 116.564 99.0526 115.788 98.6941C115.441 99.5784 114.772 100.475 114.796 101.359C114.88 105.684 115.238 109.998 115.298 114.323C115.346 117.729 115.131 121.146 114.987 124.564C114.868 127.408 113.374 129.308 111.689 128.495C108.607 127.013 110.442 119.715 110.208 116.988ZM134.07 117.43C133.771 117.096 133.305 116.498 132.719 116.044C132.6 115.949 131.752 116.618 131.752 116.618C131.752 116.618 130.443 119.633 131.118 121.385C131.406 122.132 131.835 122.532 132.23 123.106C132.648 122.616 133.293 122.198 133.448 121.636C133.783 120.394 133.855 119.091 134.07 117.43ZM134.882 124.827C136.675 124.062 137.953 123.703 139.005 123.01C139.638 122.58 139.925 121.624 140.367 120.907C139.734 120.692 138.945 120.143 138.491 120.346C137.105 120.955 135.79 121.792 134.572 122.712C134.345 122.867 134.715 123.823 134.882 124.827ZM138.837 118.876C139.853 118.709 140.2 118.649 140.546 118.601C140.486 118.386 140.486 118.111 140.355 117.956C139.626 117.108 139.235 116.131 138.085 115.53C136.848 114.884 135.731 115.22 134.536 115.112C134.954 115.96 135.169 117.096 135.85 117.597C136.83 118.326 138.144 118.601 138.837 118.876Z" fill="white"/>
<path d="M102.058 77.4368C102.058 74.4495 103.683 72.9081 106.862 72.9201C109.646 72.9201 112.072 75.0948 112.048 77.4965C112 81.7743 109.682 83.4471 107.388 83.5547C104.329 83.6742 102.058 80.9498 102.058 77.4368Z" fill="white"/>
<path d="M135.097 93.5679C135.097 97.0809 133.795 98.9927 131.417 99.0047C129.613 99.0166 127.522 96.2086 127.557 93.783C127.593 91.8592 128.454 90.3536 130.449 90.2461C132.552 90.1385 135.432 91.6321 135.097 93.5679Z" fill="white"/>
<path d="M87.7911 97.7621C87.5586 99.2782 86.3453 100.486 85.1862 100.702C82.6889 101.168 80.9443 98.9929 81.0758 96.1729C81.1833 93.9743 82.8203 93.4605 84.6366 93.6158C86.5604 93.7712 88.0995 95.751 87.7911 97.7621Z" fill="white"/>
<path d="M146.73 35.5793L146.614 36.0099C145.652 36.0409 144.992 36.3086 144.635 36.8129C144.278 37.3095 143.933 38.1357 143.6 39.2917L141.028 48.276C140.81 49.0286 140.702 49.56 140.702 49.8704C140.702 50.5066 141.291 50.8596 142.471 50.9294L142.343 51.36H134.743L134.871 50.9294C135.43 50.9294 135.868 50.844 136.186 50.6734C136.512 50.4949 136.768 50.2156 136.954 49.8355C137.148 49.4475 137.416 48.6445 137.757 47.4265L140.911 36.4521H136.547L134.941 41.9335C134.289 44.1834 133.692 46.0261 133.149 47.4614C132.606 48.8889 131.974 49.9286 131.252 50.5803C130.538 51.2242 129.766 51.5462 128.936 51.5462C128.409 51.5462 127.959 51.3871 127.586 51.069C127.214 50.7509 127.028 50.3591 127.028 49.8936C127.028 49.4824 127.175 49.1256 127.47 48.823C127.765 48.5126 128.137 48.3575 128.587 48.3575C129.076 48.3575 129.495 48.6135 129.844 49.1256C130.077 49.4747 130.286 49.6492 130.472 49.6492C130.977 49.6492 131.43 49.1915 131.834 48.276C132.245 47.3605 132.924 45.4054 133.871 42.4106C134.825 39.4081 135.302 37.6237 135.302 37.0573C135.302 36.359 134.743 36.0099 133.626 36.0099H133.196L133.324 35.5793H146.73ZM145.869 41.6193L149.453 40.5719C149.74 40.9288 149.942 41.2663 150.058 41.5844C150.268 42.1352 150.415 42.8955 150.501 43.8653C150.664 45.7739 150.776 47.8105 150.838 49.9751C151.668 48.8812 152.619 47.4342 153.689 45.6343C154.015 45.0912 154.178 44.5791 154.178 44.0981C154.178 43.7955 153.988 43.5084 153.608 43.2369C153.236 42.9654 153.003 42.7559 152.91 42.6085C152.817 42.4533 152.77 42.2555 152.77 42.0149C152.77 41.627 152.91 41.2895 153.189 41.0025C153.476 40.7154 153.821 40.5719 154.225 40.5719C154.651 40.5719 155.02 40.7348 155.33 41.0607C155.648 41.3865 155.807 41.7706 155.807 42.2128C155.807 42.7326 155.66 43.3378 155.365 44.0283C155.078 44.711 154.399 45.8864 153.329 47.5545C151.955 49.688 150.609 51.5346 149.29 53.094C148.445 54.0871 147.762 54.8009 147.242 55.2353C146.722 55.6776 146.183 56.0267 145.625 56.2827C145.291 56.4301 144.961 56.5038 144.635 56.5038C144.193 56.5038 143.817 56.3487 143.506 56.0383C143.188 55.728 143.029 55.3595 143.029 54.9327C143.029 54.506 143.173 54.1453 143.46 53.8504C143.739 53.5556 144.069 53.4082 144.449 53.4082C144.922 53.4082 145.357 53.6565 145.753 54.153C146.016 54.4866 146.234 54.6534 146.404 54.6534C146.583 54.6534 146.757 54.603 146.928 54.5022C147.161 54.378 147.487 54.091 147.906 53.641C147.952 52.6712 147.975 51.938 147.975 51.4414C147.975 50.7742 147.944 49.8355 147.882 48.6251L147.684 44.1912C147.615 43.3766 147.44 42.7908 147.161 42.4339C146.943 42.1701 146.66 42.0382 146.311 42.0382C146.179 42.0382 146.032 42.0499 145.869 42.0731V41.6193ZM157.006 41.7124L157.134 41.2818L161.079 40.5719H161.708L160.521 44.7032C160.373 45.2153 160.3 45.5722 160.3 45.7739C160.3 46.4101 160.657 46.7282 161.37 46.7282C161.712 46.7282 162.259 46.5575 163.011 46.2161L164.536 40.8977H167.445L165.222 48.6833C165.067 49.2109 164.99 49.5561 164.99 49.7191C164.99 49.9441 165.079 50.0566 165.257 50.0566C165.513 50.0566 165.99 49.5445 166.689 48.5204L167.119 48.7881C165.994 50.7199 164.78 51.6858 163.477 51.6858C163.011 51.6858 162.647 51.5539 162.383 51.2902C162.119 51.0186 161.987 50.6772 161.987 50.266C161.987 49.9557 162.088 49.4437 162.29 48.7299L162.837 46.8562C161.487 47.6476 160.377 48.0433 159.508 48.0433C158.864 48.0433 158.333 47.8687 157.914 47.5196C157.495 47.1704 157.285 46.7398 157.285 46.2278C157.285 45.9717 157.371 45.5489 157.542 44.9593L157.937 43.5744C158.1 43.0003 158.182 42.6046 158.182 42.3874C158.182 42.1934 158.116 42.0382 157.984 41.9218C157.852 41.8055 157.526 41.7356 157.006 41.7124ZM174.707 40.5719L172.449 48.4855C172.341 48.8501 172.286 49.1023 172.286 49.2419C172.286 49.3118 172.314 49.3661 172.368 49.4049C172.43 49.4669 172.504 49.498 172.589 49.498C172.946 49.498 173.423 49.1799 174.02 48.5437C174.874 47.6204 175.77 46.2937 176.709 44.5636L177.768 41.0025L180.712 40.8977L178.478 48.5786C178.291 49.2303 178.198 49.6027 178.198 49.6958C178.198 49.7579 178.226 49.8238 178.28 49.8936C178.342 49.9557 178.404 49.9867 178.466 49.9867C178.575 49.9867 178.679 49.9402 178.78 49.8471C179.06 49.6221 179.428 49.1682 179.886 48.4855L180.281 48.7648C179.203 50.7122 178.016 51.6858 176.72 51.6858C176.239 51.6858 175.859 51.5656 175.58 51.3251C175.308 51.0768 175.173 50.7548 175.173 50.3591C175.173 49.9402 175.27 49.4087 175.463 48.7648L176.034 46.798C175.025 48.2644 174.292 49.2536 173.834 49.7656C173.136 50.5337 172.546 51.0458 172.065 51.3018C171.592 51.5578 171.138 51.6858 170.704 51.6858C170.292 51.6858 169.936 51.5346 169.633 51.232C169.338 50.9294 169.191 50.5453 169.191 50.0798C169.191 49.6842 169.288 49.1527 169.482 48.4855L170.797 43.8304C171.014 43.0701 171.123 42.558 171.123 42.2942C171.123 42.1779 171.092 42.077 171.03 41.9917C170.967 41.8986 170.863 41.8287 170.715 41.7822C170.576 41.7279 170.312 41.7007 169.924 41.7007L170.04 41.2585L174.009 40.5719H174.707ZM187.939 40.5719L186.519 45.5295C187.38 45.5295 188.028 45.417 188.463 45.192C188.897 44.9593 189.359 44.3502 189.848 43.3649C190.437 42.1856 190.918 41.4253 191.291 41.0839C191.671 40.7426 192.082 40.5719 192.524 40.5719C192.904 40.5719 193.211 40.6805 193.444 40.8977C193.676 41.1072 193.793 41.3904 193.793 41.7473C193.793 42.1042 193.68 42.4029 193.455 42.6434C193.23 42.8761 192.955 42.9925 192.629 42.9925C192.389 42.9925 192.152 42.9072 191.919 42.7365C191.679 42.558 191.512 42.4688 191.419 42.4688C191.264 42.4688 191.128 42.5386 191.011 42.6783C190.903 42.8102 190.682 43.1981 190.348 43.8421C189.82 44.8584 189.27 45.5024 188.696 45.7739C189.208 45.9834 189.576 46.2433 189.801 46.5536C190.034 46.8562 190.55 47.8027 191.349 49.3932C191.698 50.0992 191.931 50.5221 192.047 50.6617C192.171 50.7936 192.385 50.8828 192.687 50.9294L192.559 51.36H189.638L187.974 48.0898C187.54 47.2364 187.229 46.7049 187.043 46.4954C186.865 46.2782 186.628 46.1696 186.333 46.1696L184.843 51.36H181.934L184.145 43.6442C184.324 43.0235 184.413 42.6085 184.413 42.399C184.413 41.9723 184.017 41.7434 183.226 41.7124L183.354 41.2818L187.299 40.5719H187.939ZM139.736 62.6724L139.922 62.2186C141.668 62.9168 143.041 64.0146 144.042 65.512C145.043 67.0016 145.543 68.6503 145.543 70.458C145.543 72.7235 144.767 74.6631 143.216 76.2768C141.672 77.8828 140.035 78.6858 138.304 78.6858C137.265 78.6858 136.431 78.3871 135.802 77.7897C135.174 77.1846 134.86 76.3467 134.86 75.276C134.86 73.3829 135.601 71.6257 137.083 70.0041C138.564 68.3826 140.038 67.5719 141.505 67.5719C141.932 67.5719 142.331 67.6805 142.703 67.8977C142.44 65.4849 141.451 63.7431 139.736 62.6724ZM141.621 68.2003C140.675 68.2003 139.794 69.2942 138.979 71.4821C138.165 73.6623 137.757 75.3691 137.757 76.6027C137.757 77.5647 138.126 78.0458 138.863 78.0458C139.748 78.0458 140.605 76.9596 141.435 74.7872C142.265 72.6149 142.68 70.9196 142.68 69.7016C142.68 68.7007 142.327 68.2003 141.621 68.2003ZM153.98 67.5719C154.593 67.5719 155.167 67.7154 155.703 68.0025C156.246 68.2818 156.653 68.6736 156.925 69.1779C157.204 69.6822 157.344 70.2408 157.344 70.8537C157.344 72.1106 156.991 73.3674 156.285 74.6243C155.586 75.8812 154.663 76.8742 153.515 77.6035C152.367 78.3251 151.211 78.6858 150.047 78.6858C148.992 78.6858 148.173 78.3716 147.591 77.7432C147.017 77.1148 146.73 76.3467 146.73 75.4389C146.73 74.3605 146.943 73.3519 147.37 72.4131C147.805 71.4666 148.352 70.6442 149.011 69.946C149.678 69.2399 150.443 68.6697 151.304 68.2352C152.165 67.793 153.057 67.5719 153.98 67.5719ZM153.503 68.1887C153.092 68.1887 152.751 68.3089 152.479 68.5494C151.936 69.0382 151.323 70.1826 150.64 71.9825C149.958 73.7747 149.616 75.3924 149.616 76.8355C149.616 77.1923 149.725 77.4872 149.942 77.7199C150.159 77.9527 150.415 78.069 150.71 78.069C151.013 78.069 151.28 77.9759 151.513 77.7897C151.855 77.5104 152.274 76.8859 152.77 75.9161C153.267 74.9385 153.674 73.864 153.992 72.6924C154.31 71.5132 154.469 70.4347 154.469 69.4572C154.469 69.0537 154.372 68.7434 154.178 68.5262C153.984 68.3012 153.759 68.1887 153.503 68.1887ZM169.866 62.2186H170.296C169.87 64.1426 168.551 65.1939 166.34 65.3724C165.416 65.4499 164.737 65.5547 164.303 65.6866C163.876 65.8107 163.415 66.0784 162.918 66.4896C162.429 66.893 162.006 67.3973 161.65 68.0025C161.3 68.5999 160.959 69.3912 160.625 70.3766C162.169 68.5068 163.907 67.5719 165.839 67.5719C166.848 67.5719 167.666 67.8745 168.295 68.4796C168.923 69.077 169.237 69.8723 169.237 70.8653C169.237 72.8437 168.489 74.6437 166.991 76.2652C165.502 77.879 163.845 78.6858 162.022 78.6858C161.029 78.6858 160.245 78.3949 159.671 77.813C159.105 77.2234 158.822 76.4243 158.822 75.4157C158.822 73.9571 159.202 72.2386 159.962 70.2602C160.73 68.274 161.525 66.7456 162.348 65.6749C163.178 64.5965 164 63.8789 164.815 63.522C165.63 63.1651 166.677 62.9517 167.957 62.8819C168.671 62.8431 169.129 62.7888 169.33 62.719C169.54 62.6491 169.718 62.4823 169.866 62.2186ZM165.385 68.1887C164.912 68.1887 164.458 68.4835 164.024 69.0731C163.597 69.655 163.089 70.8071 162.499 72.5295C161.917 74.2441 161.626 75.6678 161.626 76.8005C161.626 77.6462 161.964 78.069 162.639 78.069C163.36 78.069 164.163 77.0798 165.048 75.1014C165.932 73.123 166.374 71.292 166.374 69.6085C166.374 68.6619 166.045 68.1887 165.385 68.1887ZM171.402 68.2236L175.254 67.5719H175.952L175.429 69.4688C176.243 68.724 176.91 68.2236 177.43 67.9676C177.95 67.7038 178.466 67.5719 178.978 67.5719C179.707 67.5719 180.27 67.8551 180.666 68.4214C181.061 68.98 181.259 69.6667 181.259 70.4813C181.259 72.708 180.487 74.6825 178.943 76.4049C177.578 77.9255 176.088 78.6858 174.474 78.6858C174.187 78.6858 173.943 78.6587 173.741 78.6044C173.539 78.5501 173.256 78.4298 172.892 78.2436L172.286 80.3384C172.069 81.0987 171.961 81.6767 171.961 82.0724C171.961 82.3207 172.046 82.5146 172.217 82.6543C172.387 82.8017 172.787 82.9258 173.415 83.0267L173.311 83.4573H167.049L167.166 83.0267C167.662 83.0112 168.077 82.8521 168.411 82.5495C168.737 82.247 169.043 81.5953 169.33 80.5944L172.17 70.8071C172.38 70.0779 172.484 69.5619 172.484 69.2593C172.484 69.1274 172.453 69.0188 172.391 68.9335C172.329 68.8404 172.236 68.7744 172.112 68.7356C171.988 68.6969 171.708 68.6775 171.274 68.6775L171.402 68.2236ZM173.217 77.1613C173.45 77.5415 173.66 77.7975 173.846 77.9294C174.032 78.0535 174.249 78.1156 174.498 78.1156C174.746 78.1156 174.986 78.0496 175.219 77.9178C175.46 77.7781 175.754 77.5027 176.104 77.0915C176.453 76.6803 176.786 76.1527 177.104 75.5088C177.43 74.8648 177.69 74.1355 177.884 73.3209C178.078 72.4985 178.175 71.7149 178.175 70.9701C178.175 70.3727 178.066 69.9382 177.849 69.6667C177.64 69.3951 177.384 69.2593 177.081 69.2593C176.81 69.2593 176.554 69.3292 176.313 69.4688C175.964 69.6705 175.553 70.0468 175.079 70.5977L173.217 77.1613ZM193.292 67.7348L191.035 75.4738L190.802 76.4165C190.779 76.5329 190.767 76.6182 190.767 76.6725C190.767 76.7656 190.798 76.8471 190.86 76.9169C190.93 76.9867 191 77.0217 191.07 77.0217C191.233 77.0217 191.458 76.8975 191.745 76.6492C191.861 76.5484 192.14 76.1915 192.582 75.5786L192.99 75.7881C192.439 76.7967 191.849 77.5337 191.221 77.9992C190.6 78.457 189.929 78.6858 189.208 78.6858C188.765 78.6858 188.428 78.5733 188.195 78.3483C187.962 78.1156 187.846 77.8247 187.846 77.4755C187.846 77.1729 187.97 76.6105 188.218 75.7881L188.498 74.8454C187.598 76.3893 186.733 77.4833 185.902 78.1272C185.421 78.4996 184.909 78.6858 184.366 78.6858C183.653 78.6858 183.137 78.3949 182.818 77.813C182.5 77.2234 182.341 76.56 182.341 75.823C182.341 74.729 182.675 73.476 183.342 72.064C184.009 70.6442 184.886 69.5037 185.972 68.6425C186.865 67.9288 187.702 67.5719 188.486 67.5719C188.921 67.5719 189.27 67.6999 189.533 67.9559C189.797 68.2042 189.991 68.6619 190.115 69.3292L190.534 67.8977L193.292 67.7348ZM189.568 69.946C189.568 69.3175 189.471 68.8637 189.277 68.5844C189.138 68.3904 188.948 68.2934 188.707 68.2934C188.467 68.2934 188.218 68.4098 187.962 68.6425C187.443 69.1236 186.88 70.1011 186.275 71.5752C185.677 73.0416 185.379 74.3101 185.379 75.3807C185.379 75.7919 185.445 76.0906 185.577 76.2768C185.716 76.4553 185.868 76.5445 186.03 76.5445C186.38 76.5445 186.733 76.3428 187.09 75.9394C187.602 75.3652 188.063 74.6631 188.474 73.8329C189.204 72.3743 189.568 71.0787 189.568 69.946Z" fill="white"/>
<path d="M43.8852 52.4383C45.6769 57.3087 47.4938 62.2044 49.2855 67.1C52.9698 77.2193 56.8308 87.263 60.2124 97.458C62.4583 104.221 63.9724 111.236 65.8146 118.126C65.966 118.706 66.1931 119.362 65.2594 119.463C64.5276 119.539 63.7705 119.892 63.4172 118.656C59.0768 103.994 54.6858 89.3323 50.2949 74.6958C48.1499 67.5795 46.0049 60.4379 43.8852 53.3216C43.8095 53.044 43.759 52.7664 43.6833 52.4888C43.7085 52.4636 43.8095 52.4383 43.8852 52.4383Z" fill="white"/>
<path d="M51.1275 111.312C50.0172 110.429 48.8564 109.622 47.8217 108.663C47.4684 108.335 47.3422 107.704 47.2665 107.174C46.3328 100.865 45.4244 94.5309 44.5159 88.2221C43.2037 78.986 41.8914 69.7499 40.6044 60.539C40.3016 58.3436 39.9988 56.1481 39.9483 53.9022C43.7588 72.98 47.5694 92.0578 51.4051 111.136C51.3042 111.186 51.2032 111.237 51.1275 111.312Z" fill="white"/>
<path d="M59.5042 35.9347C61.6164 36.3871 63.7534 36.8646 65.8655 37.317C79.0106 40.2073 92.1309 43.0975 105.276 45.9626C106.046 46.1385 106.568 46.3647 106.245 47.2695C105.972 48.0235 106.071 49.1042 104.655 48.7272C93.8951 45.7364 83.1107 42.7708 72.3263 39.8051C68.7232 38.825 65.1201 37.8951 61.517 36.94C60.8212 36.7641 60.1006 36.5379 59.4048 36.3117C59.4545 36.2112 59.4794 36.0855 59.5042 35.9347Z" fill="white"/>
<path d="M101.068 56.5773C100.336 57.0315 99.6298 57.6119 98.8222 57.94C98.3932 58.1166 97.7623 57.9652 97.3081 57.7633C93.3714 55.9716 89.4852 54.079 85.5233 52.2873C77.0947 48.4767 68.6409 44.7167 60.2123 40.9314C59.4553 40.6034 58.7487 40.2248 57.9916 39.8715C58.0421 39.7706 58.0926 39.6697 58.1178 39.5939C72.4262 45.1205 86.7093 50.647 101.018 56.1987C101.043 56.3249 101.068 56.4511 101.068 56.5773Z" fill="white"/>
<path d="M67.7576 91.0485C60.8684 77.6233 54.1559 64.4758 47.418 51.3535C47.5442 51.2777 47.6704 51.202 47.8218 51.1011C48.0489 51.4544 48.276 51.8077 48.4779 52.161C54.9634 63.4159 61.4488 74.6456 67.9343 85.9005C69.1708 88.0455 69.1708 88.2978 67.7576 91.0485Z" fill="white"/>
<path d="M36.9454 99.2248C35.0275 97.6854 34.0434 96.247 34.1443 93.9002C34.7499 80.8031 35.1789 67.706 35.6837 54.6089C35.6837 54.4575 35.7089 54.3061 35.9108 54.1799C36.2641 69.0939 36.5921 84.0079 36.9454 99.2248Z" fill="white"/>
<path d="M60.2095 32.6754C61.2369 32.6754 62.2643 32.6272 63.2917 32.6754C68.381 32.9407 73.4702 33.3024 78.5594 33.5195C85.1539 33.8089 91.7723 34.0018 98.3668 34.1706C100.039 34.2188 100.207 35.6899 101.043 36.534C100.995 36.6787 100.971 36.7993 100.923 36.944C87.3282 35.5935 73.7569 34.243 60.1618 32.8925C60.1856 32.8201 60.2095 32.7478 60.2095 32.6754Z" fill="white"/>
<path d="M90.7217 63.34C88.7029 65.2579 88.6272 65.2327 86.6841 63.9457C78.4827 58.3939 70.256 52.8926 62.0293 47.3409C60.0609 46.0034 58.0926 44.6407 56.1242 43.3032C56.1747 43.2023 56.2252 43.1266 56.3009 43.0257C67.7324 49.7635 79.164 56.5265 90.7217 63.34Z" fill="white"/>
<path d="M51.4557 49.0066C53.0707 51.0002 54.6606 52.9938 56.2756 54.9621C62.3573 62.2047 68.439 69.4472 74.5207 76.6897C75.202 77.4972 74.9749 78.2038 73.4356 79.5413C65.9659 69.4472 58.5215 59.3783 51.0772 49.3094C51.2033 49.2085 51.3295 49.1076 51.4557 49.0066Z" fill="white"/>
<path d="M54.5091 46.4073C63.5938 54.205 72.6532 61.9775 81.7127 69.7499C80.6275 71.6678 80.2995 71.7687 78.8358 70.3808C73.915 65.6618 69.0193 60.9428 64.1237 56.1986C61.1207 53.2965 58.1429 50.3945 55.1652 47.5177C54.8624 47.2401 54.5848 46.912 54.3072 46.6092C54.3829 46.5335 54.4586 46.483 54.5091 46.4073Z" fill="white"/>
<path d="M32.1254 53.6752C30.3085 65.1067 28.5168 76.5131 26.7251 87.768C25.9428 86.3043 24.9081 84.8155 25.4633 82.4938C27.6588 73.3587 29.6271 64.1478 31.6712 54.9622C31.7721 54.5332 31.8983 54.079 31.9992 53.65C32.0497 53.6752 32.1002 53.6752 32.1254 53.6752Z" fill="white"/>
<path d="M91.4534 26.3084C80.9429 27.2543 70.5763 28.1753 60.2097 29.1213C60.1858 29.0217 60.1857 28.8972 60.1618 28.7977C60.8817 28.6732 61.5776 28.5238 62.2975 28.4243C70.6003 27.1796 78.9032 25.9599 87.23 24.7153C89.1258 24.3917 89.5577 24.541 91.4534 26.3084Z" fill="white"/>
<path d="M28.4665 53.0696C25.842 60.413 23.2175 67.7817 20.5931 75.1504C20.1388 73.8634 19.836 72.6521 20.4921 71.1633C23.0409 65.4853 25.413 59.7317 27.8861 54.0285C28.0375 53.6752 28.2141 53.3472 28.3655 53.0191C28.3908 53.0444 28.416 53.0444 28.4665 53.0696Z" fill="white"/>
<path d="M80.6023 19.759C73.814 21.6012 67.051 23.4434 60.2627 25.3108C60.2122 25.2098 60.1618 25.1089 60.1365 25.0079C60.3889 24.8818 60.6412 24.7556 60.8936 24.6546C66.2182 22.8125 71.5429 20.9955 76.817 19.0777C78.205 18.573 79.3405 19.0272 80.5518 19.431C80.5771 19.5319 80.5771 19.6328 80.6023 19.759Z" fill="white"/>
<path d="M18.7256 68.0845C18.6246 65.6619 18.3471 63.2646 18.8265 60.7663C19.2303 58.7222 20.6182 57.5362 21.6529 56.0221C22.5109 54.7603 23.4193 53.5238 24.5549 52.4134C24.2773 52.9434 23.9997 53.4985 23.6969 54.0032C22.309 56.2996 20.8453 58.5708 19.5583 60.9177C19.1041 61.7252 18.9779 62.8103 18.9779 63.744C18.9779 65.1572 19.2051 66.5956 19.3565 68.0088C19.1293 68.0593 18.9275 68.0593 18.7256 68.0845Z" fill="white"/>
<path d="M70.3568 17.0335C66.6725 18.5476 63.0134 20.0618 59.329 21.5759C59.2785 21.4749 59.2281 21.3992 59.2028 21.2983C60.4646 20.6169 61.7011 19.9356 62.9881 19.2542C64.477 18.4719 65.9154 17.6139 67.48 17.0083C68.338 16.6802 69.3726 16.7559 70.3316 16.655C70.3316 16.7812 70.3316 16.9074 70.3568 17.0335Z" fill="white"/>
<path d="M56.1274 11.1784C56.3081 11.256 56.4888 11.3594 56.6695 11.437C54.7591 11.8767 52.8488 12.2904 50.9384 12.7301C50.9126 12.6266 50.8868 12.4973 50.861 12.3939C52.6164 11.9801 54.3719 11.5922 56.1274 11.1784Z" fill="white"/>
<path d="M104.107 145.657C108.393 144.109 112.704 142.709 117.015 141.235C125.602 138.282 140.059 135.867 146.057 127.37C149.687 122.228 149.687 118.598 149.687 118.598C149.687 118.598 148.802 123.751 145.452 126.463C136.68 135.972 104.177 132.174 89.0303 143.937C88.1435 144.625 87.4044 145.485 86.6161 146.247C89.1288 148.557 91.4445 150.694 93.7601 152.832C93.9818 153.029 94.3267 153.201 94.6224 153.274C97.0119 153.913 99.4261 154.675 101.865 155.142C104.033 155.535 106.274 155.584 108.467 155.805C108.467 155.658 108.492 155.535 108.516 155.387C107.605 155.068 106.644 154.822 105.782 154.404C104.23 153.643 102.629 152.979 101.274 151.947C99.5493 150.645 99.5739 149.024 101.151 147.574C102.013 146.788 103.023 146.051 104.107 145.657Z" fill="white"/>
<path d="M87.4422 145.822C86.0441 144.93 84.5823 144.101 83.4199 143.046C77.8789 138.053 98.8798 138.316 100.52 138.235C109.39 137.785 132.076 138.536 139.291 133.383C129.201 138.725 89.3926 128.777 72.7078 134.5C71.7311 134.834 70.8717 135.329 69.9797 135.739C72.0727 137.993 74.0002 140.078 75.9276 142.162C76.1134 142.356 76.4237 142.556 76.7012 142.673C78.9383 143.645 81.1801 144.716 83.4926 145.569C85.5517 146.312 87.7375 146.811 89.8479 147.429C89.8712 147.318 89.9148 147.231 89.9623 147.125C89.1209 146.697 88.2197 146.314 87.4422 145.822Z" fill="white"/>
<path d="M72.4983 144.106C78.2552 148.735 83.8572 153.519 88.6331 159.209C90.1045 160.941 91.4986 162.752 92.9185 164.51C92.8152 164.614 92.7119 164.717 92.6087 164.821C86.1547 157.243 78.6424 150.804 70.717 144.881C63.9533 139.838 57.0089 135.054 50.1677 130.14C41.9067 124.218 33.9555 117.908 26.882 110.589C19.7052 103.167 13.7418 94.8915 9.86945 85.2194C6.152 75.8576 5.04192 66.1854 6.84902 56.2806C8.99172 44.6171 14.5937 34.8157 23.5001 27.0055C34.4718 17.3851 47.3796 12.5232 61.8622 11.9284C72.0852 11.5146 81.0949 15.0317 89.0461 21.3419C90.8016 22.7384 92.4538 24.2384 94.1576 25.6866C95.2677 26.7987 96.4036 27.8848 97.5136 28.9969C97.5653 28.9451 97.6169 28.8676 97.6944 28.8158C96.6101 27.6779 95.5258 26.5659 94.4416 25.428C88.9687 19.8678 82.8762 15.2386 75.2864 12.9628C69.6069 11.2819 63.85 10.687 57.964 11.4112C57.4994 11.4629 57.0089 11.437 56.5442 11.437C56.3635 11.3594 56.1828 11.256 56.0021 11.1784C57.8866 10.8939 59.7453 10.6353 61.6299 10.3508C64.831 10.3508 68.058 10.3508 71.2591 10.3767C79.7783 10.9715 87.4455 13.868 94.0802 19.2989C102.625 26.2814 108.434 35.2294 112.435 45.5481C112.59 45.2378 112.719 44.9792 112.822 44.6947C117.134 33.5485 123.562 24.0056 133.604 17.23C142.097 11.5146 151.546 9.34226 161.691 10.1698C165.022 10.4543 168.3 11.1784 171.605 11.7215C171.527 11.7991 171.45 11.9025 171.372 11.9801C164.66 10.687 157.948 10.6095 151.262 12.0318C142.588 13.868 135.643 18.5747 129.809 25.1177C129.241 25.7383 128.699 26.3849 128.338 27.2383C128.647 26.928 128.957 26.6435 129.267 26.3331C134.353 21.0057 140.058 16.6093 147.106 14.1266C152.398 12.2646 157.845 11.7474 163.395 12.0318C174.186 12.5491 184.203 15.6783 193.367 21.3678C201.731 26.54 208.392 33.445 212.936 42.212C219.725 55.3237 220.37 68.8233 215.414 82.7367C211.128 94.7363 203.384 104.098 193.754 112.089C186.216 118.348 177.826 123.365 169.384 128.304C159.213 134.252 149.119 140.33 138.974 146.33C138.69 146.485 138.406 146.614 138.07 146.666C150.539 137.123 164.015 129.106 177.413 120.934C177.181 121.011 176.923 121.037 176.69 121.167C164.918 127.554 153.275 134.097 142.201 141.649C131.126 149.2 121.212 157.941 113.597 169.114C110.964 172.993 108.873 177.131 107.84 181.734C107.504 183.182 107.53 184.708 107.427 186.208C107.272 188.303 107.117 190.397 106.988 192.44C106.575 188.691 106.317 184.941 105.723 181.242C104.174 171.674 99.3466 163.786 92.841 156.829C92.6087 156.571 92.3763 156.338 92.1182 156.079C91.163 155.071 90.2078 154.036 89.2526 153.028C89.0977 153.183 88.9428 153.338 88.7621 153.519C89.7948 154.45 90.8532 155.381 91.8858 156.312C95.7065 160.76 99.2433 165.415 101.618 170.846C104.871 178.32 105.723 186.182 104.768 194.251C104.742 194.458 104.69 194.664 104.613 194.871C104.587 194.923 104.484 194.975 104.277 195.13C103.942 192.234 103.555 189.441 103.271 186.622C102.315 177.932 99.1658 170.2 93.7704 163.295C87.8069 155.691 80.4495 149.666 72.8339 143.873C70.1232 141.907 67.3868 139.968 64.6761 138.002C64.5987 138.106 64.547 138.183 64.4696 138.287C67.1286 140.175 69.8134 142.14 72.4983 144.106ZM168.3 121.141C166.984 121.865 165.641 122.615 164.325 123.339C164.376 123.442 164.454 123.546 164.505 123.675C165.848 122.899 167.19 122.149 168.533 121.373C170.52 120.261 172.534 119.175 174.522 118.063C183.712 113.098 192.593 107.719 200.208 100.452C205.191 95.6932 209.037 90.133 211.929 83.9004C213.323 80.2023 214.691 76.4782 216.085 72.7801C216.498 70.4008 216.911 68.0216 217.324 65.6165C217.195 65.5906 217.066 65.5648 216.937 65.5389C216.55 67.8406 216.162 70.1681 215.775 72.4697C214.381 76.1679 213.013 79.8661 211.619 83.5901C206.843 93.0554 200.053 100.762 191.328 106.71C185.726 110.512 179.917 114.081 174.212 117.753C172.25 118.891 170.288 120.003 168.3 121.141ZM12.038 73.5559C11.5475 72.1594 11.057 70.7629 10.5407 69.3664C10.4116 69.4181 10.2567 69.4698 10.1276 69.5216C10.6956 70.9439 11.2377 72.3663 11.8056 73.7887C13.7418 78.7799 16.1685 83.5125 19.1373 87.9865C24.5069 96.0811 31.2706 102.934 38.3958 109.451C39.067 110.072 39.7898 110.667 40.4868 111.262C40.4094 110.77 40.1512 110.46 39.8673 110.176C35.7368 105.908 31.4514 101.796 27.4757 97.3742C21.0735 90.2882 15.7038 82.4522 12.038 73.5559ZM135.205 143.304C127.176 148.295 119.922 154.192 114.061 161.665C111.273 165.234 108.718 168.958 107.22 173.303C106.962 174.027 106.833 174.777 106.652 175.527C106.988 175.398 107.091 175.217 107.169 175.036C109.699 168.7 113.674 163.321 118.218 158.303C123.355 152.666 129.344 148.062 135.488 143.614C137.347 142.399 139.206 141.209 141.065 139.994C140.987 139.89 140.91 139.761 140.832 139.657C138.948 140.847 137.089 142.088 135.205 143.304ZM169.617 117.779C171.295 116.744 172.999 115.736 174.677 114.675C182.163 109.891 189.443 104.822 195.174 97.8914C205.449 85.5038 210.406 71.5129 207.282 55.3237C204.21 39.419 195.329 27.859 180.563 21.1867C170.753 16.7645 160.452 16.0403 149.997 18.9627C149.919 18.8851 149.816 18.7816 149.739 18.7041C151.649 18.161 153.534 17.4886 155.47 17.1265C166.054 15.1611 176.148 16.9196 185.855 21.316C193.651 24.8332 200.208 30.0313 205.991 36.2898C208.134 38.9535 210.251 41.643 212.393 44.3068C210.767 41.2293 208.753 38.4362 206.327 35.9536C193.032 21.0833 176.794 13.5318 156.58 15.8334C133.991 21.2126 118.192 33.8588 112.203 57.0823C112.203 57.0823 112.125 56.9788 112.099 56.8754C111.17 49.0653 107.866 42.2637 102.961 36.2639C97.2039 29.2038 89.8206 24.1349 81.7403 20.1264C70.7428 14.6956 59.3323 13.6611 47.7152 17.7472C35.8658 21.9367 27.1918 29.8503 21.8996 41.2551C12.8641 60.7287 15.6263 78.9609 28.6374 95.6156C37.0017 106.322 47.3796 115.037 58.1189 123.287C64.3663 128.072 70.6654 132.804 76.9127 137.563C76.8095 137.666 76.7062 137.77 76.603 137.873C65.4506 130.942 54.2724 124.011 43.12 117.106C40.6159 115.503 38.1376 113.9 35.6335 112.296C35.5819 112.4 35.5044 112.503 35.4528 112.607C37.9053 114.21 40.3578 115.813 42.8102 117.417C50.3226 122.123 57.7833 126.908 65.3473 131.511C75.0798 137.433 84.1411 144.183 92.428 152.071C98.8044 158.122 103.116 165.26 105.981 173.432C106.059 173.691 106.214 173.924 106.317 174.105C106.988 172.113 107.53 170.096 108.33 168.208C112.074 159.467 118.063 152.407 125.085 146.175C131.126 140.821 137.709 136.192 144.55 131.951C144.782 131.847 145.04 131.77 145.247 131.64C149.739 129.132 154.256 126.623 158.723 124.089C162.363 122.046 165.977 119.899 169.617 117.779Z" fill="white"/>
</svg>
